<?xml version="1.0" encoding="UTF-8" standalone="no"?>
<!DOCTYPE svg PUBLIC "-//W3C//DTD SVG 1.1//EN"
 "http://www.w3.org/Graphics/SVG/1.1/DTD/svg11.dtd">
<!-- Generated by graphviz version 2.46.1 (20210213.1702)
 -->
<!-- Title: G Pages: 1 -->
<svg width="230pt" height="316pt"
 viewBox="0.00 0.00 229.70 316.05" xmlns="http://www.w3.org/2000/svg" xmlns:xlink="http://www.w3.org/1999/xlink">
<g id="graph0" class="graph" transform="scale(1 1) rotate(0) translate(4 312.05)">
<title>G</title>
<polygon fill="white" stroke="transparent" points="-4,4 -4,-312.05 225.7,-312.05 225.7,4 -4,4"/>
<!-- root -->
<g id="node1" class="node">
<title>root</title>
<ellipse fill="none" stroke="black" cx="134.85" cy="-285.42" rx="22.76" ry="22.76"/>
<text text-anchor="middle" x="134.85" y="-283.52" font-family="Times New Roman,serif" font-size="8.00">root</text>
</g>
<!-- 1 -->
<g id="node2" class="node">
<title>1</title>
<ellipse fill="none" stroke="black" cx="110.85" cy="-211.94" rx="14.7" ry="14.7"/>
<text text-anchor="middle" x="110.85" y="-210.04" font-family="Times New Roman,serif" font-size="8.00">1</text>
</g>
<!-- 1&#45;&#45;root -->
<g id="edge1" class="edge">
<title>1&#45;&#45;root</title>
<path fill="none" stroke="black" d="M115.36,-226.39C118.89,-236.9 123.86,-251.7 127.9,-263.73"/>
</g>
<!-- 10 -->
<g id="node3" class="node">
<title>10</title>
<ellipse fill="none" stroke="black" cx="62.85" cy="-146.25" rx="14.7" ry="14.7"/>
<text text-anchor="middle" x="62.85" y="-144.35" font-family="Times New Roman,serif" font-size="8.00">0</text>
</g>
<!-- 10&#45;&#45;1 -->
<g id="edge2" class="edge">
<title>10&#45;&#45;1</title>
<path fill="none" stroke="black" d="M71.43,-158.63C80.17,-170.23 93.63,-188.1 102.34,-199.66"/>
</g>
<!-- 100 -->
<g id="node4" class="node">
<title>100</title>
<ellipse fill="lightgray" stroke="lightgray" cx="14.85" cy="-80.55" rx="14.7" ry="14.7"/>
<text text-anchor="middle" x="14.85" y="-78.65" font-family="Times New Roman,serif" font-size="8.00">0</text>
</g>
<!-- 100&#45;&#45;10 -->
<g id="edge3" class="edge">
<title>100&#45;&#45;10</title>
<path fill="none" stroke="black" d="M23.43,-92.94C32.17,-104.53 45.63,-122.4 54.34,-133.96"/>
</g>
<!-- 101 -->
<g id="node5" class="node">
<title>101</title>
<ellipse fill="none" stroke="black" cx="62.85" cy="-80.55" rx="14.7" ry="14.7"/>
<text text-anchor="middle" x="62.85" y="-78.65" font-family="Times New Roman,serif" font-size="8.00">1</text>
</g>
<!-- 101&#45;&#45;10 -->
<g id="edge4" class="edge">
<title>101&#45;&#45;10</title>
<path fill="none" stroke="black" d="M62.85,-95.68C62.85,-106.24 62.85,-120.6 62.85,-131.15"/>
</g>
<!-- 1010 -->
<g id="node6" class="node">
<title>1010</title>
<ellipse fill="lightgray" stroke="lightgray" cx="62.85" cy="-14.85" rx="14.7" ry="14.7"/>
<text text-anchor="middle" x="62.85" y="-12.95" font-family="Times New Roman,serif" font-size="8.00">0</text>
</g>
<!-- 1010&#45;&#45;101 -->
<g id="edge5" class="edge">
<title>1010&#45;&#45;101</title>
<path fill="none" stroke="black" d="M62.85,-29.99C62.85,-40.54 62.85,-54.9 62.85,-65.45"/>
</g>
<!-- 11 -->
<g id="node7" class="node">
<title>11</title>
<ellipse fill="none" stroke="black" cx="110.85" cy="-146.25" rx="14.7" ry="14.7"/>
<text text-anchor="middle" x="110.85" y="-144.35" font-family="Times New Roman,serif" font-size="8.00">1</text>
</g>
<!-- 11&#45;&#45;1 -->
<g id="edge6" class="edge">
<title>11&#45;&#45;1</title>
<path fill="none" stroke="black" d="M110.85,-161.38C110.85,-171.94 110.85,-186.3 110.85,-196.85"/>
</g>
<!-- 111 -->
<g id="node8" class="node">
<title>111</title>
<ellipse fill="none" stroke="black" cx="110.85" cy="-80.55" rx="14.7" ry="14.7"/>
<text text-anchor="middle" x="110.85" y="-78.65" font-family="Times New Roman,serif" font-size="8.00">1</text>
</g>
<!-- 111&#45;&#45;11 -->
<g id="edge7" class="edge">
<title>111&#45;&#45;11</title>
<path fill="none" stroke="black" d="M110.85,-95.68C110.85,-106.24 110.85,-120.6 110.85,-131.15"/>
</g>
<!-- 1111 -->
<g id="node9" class="node">
<title>1111</title>
<ellipse fill="lightgray" stroke="lightgray" cx="110.85" cy="-14.85" rx="14.7" ry="14.7"/>
<text text-anchor="middle" x="110.85" y="-12.95" font-family="Times New Roman,serif" font-size="8.00">1</text>
</g>
<!-- 1111&#45;&#45;111 -->
<g id="edge8" class="edge">
<title>1111&#45;&#45;111</title>
<path fill="none" stroke="black" d="M110.85,-29.99C110.85,-40.54 110.85,-54.9 110.85,-65.45"/>
</g>
<!-- 0 -->
<g id="node10" class="node">
<title>0</title>
<ellipse fill="none" stroke="black" cx="158.85" cy="-211.94" rx="14.7" ry="14.7"/>
<text text-anchor="middle" x="158.85" y="-210.04" font-family="Times New Roman,serif" font-size="8.00">0</text>
</g>
<!-- 0&#45;&#45;root -->
<g id="edge9" class="edge">
<title>0&#45;&#45;root</title>
<path fill="none" stroke="black" d="M154.34,-226.39C150.8,-236.9 145.83,-251.7 141.8,-263.73"/>
</g>
<!-- 01 -->
<g id="node11" class="node">
<title>01</title>
<ellipse fill="none" stroke="black" cx="158.85" cy="-146.25" rx="14.7" ry="14.7"/>
<text text-anchor="middle" x="158.85" y="-144.35" font-family="Times New Roman,serif" font-size="8.00">1</text>
</g>
<!-- 01&#45;&#45;0 -->
<g id="edge10" class="edge">
<title>01&#45;&#45;0</title>
<path fill="none" stroke="black" d="M158.85,-161.38C158.85,-171.94 158.85,-186.3 158.85,-196.85"/>
</g>
<!-- 010 -->
<g id="node12" class="node">
<title>010</title>
<ellipse fill="lightgray" stroke="lightgray" cx="158.85" cy="-80.55" rx="14.7" ry="14.7"/>
<text text-anchor="middle" x="158.85" y="-78.65" font-family="Times New Roman,serif" font-size="8.00">0</text>
</g>
<!-- 010&#45;&#45;01 -->
<g id="edge11" class="edge">
<title>010&#45;&#45;01</title>
<path fill="none" stroke="black" d="M158.85,-95.68C158.85,-106.24 158.85,-120.6 158.85,-131.15"/>
</g>
<!-- 00 -->
<g id="node13" class="node">
<title>00</title>
<ellipse fill="none" stroke="black" cx="206.85" cy="-146.25" rx="14.7" ry="14.7"/>
<text text-anchor="middle" x="206.85" y="-144.35" font-family="Times New Roman,serif" font-size="8.00">0</text>
</g>
<!-- 00&#45;&#45;0 -->
<g id="edge12" class="edge">
<title>00&#45;&#45;0</title>
<path fill="none" stroke="black" d="M198.27,-158.63C189.53,-170.23 176.07,-188.1 167.36,-199.66"/>
</g>
<!-- 000 -->
<g id="node14" class="node">
<title>000</title>
<ellipse fill="lightgray" stroke="lightgray" cx="206.85" cy="-80.55" rx="14.7" ry="14.7"/>
<text text-anchor="middle" x="206.85" y="-78.65" font-family="Times New Roman,serif" font-size="8.00">0</text>
</g>
<!-- 000&#45;&#45;00 -->
<g id="edge13" class="edge">
<title>000&#45;&#45;00</title>
<path fill="none" stroke="black" d="M206.85,-95.68C206.85,-106.24 206.85,-120.6 206.85,-131.15"/>
</g>
</g>
</svg>
